<?xml version="1.0" encoding="UTF-8" standalone="no"?><svg xmlns="http://www.w3.org/2000/svg" xmlns:xlink="http://www.w3.org/1999/xlink" contentScriptType="application/ecmascript" contentStyleType="text/css" height="125px" preserveAspectRatio="none" style="width:176px;height:125px;" version="1.1" viewBox="0 0 176 125" width="176px" zoomAndPan="magnify"><defs><filter height="300%" id="f1h5bqii4z1uwj" width="300%" x="-1" y="-1"><feGaussianBlur result="blurOut" stdDeviation="2.0"/><feColorMatrix in="blurOut" result="blurOut2" type="matrix" values="0 0 0 0 0 0 0 0 0 0 0 0 0 0 0 0 0 0 .4 0"/><feOffset dx="4.0" dy="4.0" in="blurOut2" result="blurOut3"/><feBlend in="SourceGraphic" in2="blurOut3" mode="normal"/></filter></defs><g><rect fill="#FEFECE" filter="url(#f1h5bqii4z1uwj)" height="106.5625" rx="12.5" ry="12.5" style="stroke:#A80036;stroke-width:1.5;" width="157" x="7" y="7"/><rect fill="#FFFFFF" height="74.2656" rx="12.5" ry="12.5" style="stroke:#FFFFFF;stroke-width:1.0;" width="151" x="10" y="36.2969"/><line style="stroke:#A80036;stroke-width:1.5;" x1="7" x2="164" y1="33.2969" y2="33.2969"/><text fill="#000000" font-family="sans-serif" font-size="14" lengthAdjust="spacing" textLength="59" x="56" y="24.9951">machine</text><ellipse cx="28" cy="70.2969" fill="#000000" filter="url(#f1h5bqii4z1uwj)" rx="10" ry="10" style="stroke:none;stroke-width:1.0;"/><g id="machine.machine.initial"><rect fill="#FEFECE" filter="url(#f1h5bqii4z1uwj)" height="50.2656" rx="12.5" ry="12.5" style="stroke:#A80036;stroke-width:1.5;" width="74" x="74" y="45.2969"/><line style="stroke:#A80036;stroke-width:1.5;" x1="74" x2="148" y1="71.5938" y2="71.5938"/><text fill="#000000" font-family="sans-serif" font-size="14" lengthAdjust="spacing" textLength="34" x="94" y="63.292">initial</text><text fill="#000000" font-family="sans-serif" font-size="12" lengthAdjust="spacing" textLength="54" x="79" y="87.7324">LOG\l/log</text></g><!--MD5=[75d38d51f932471ff9a649031df9b364]
link *start*machine to machine.initial--><path d="M38.29,70.2969 C45.86,70.2969 57.12,70.2969 68.48,70.2969 " fill="none" id="*start*machine-to-machine.initial" style="stroke:#A80036;stroke-width:1.0;"/><polygon fill="#A80036" points="73.69,70.2969,64.69,66.2969,68.69,70.2969,64.69,74.2969,73.69,70.2969" style="stroke:#A80036;stroke-width:1.0;"/></g></svg>