<?xml version="1.0" encoding="UTF-8" standalone="no"?><svg xmlns="http://www.w3.org/2000/svg" xmlns:xlink="http://www.w3.org/1999/xlink" contentScriptType="application/ecmascript" contentStyleType="text/css" height="132px" preserveAspectRatio="none" style="width:396px;height:132px;" version="1.1" viewBox="0 0 396 132" width="396px" zoomAndPan="magnify"><defs><filter height="300%" id="f1l9umeo81n6zb" width="300%" x="-1" y="-1"><feGaussianBlur result="blurOut" stdDeviation="2.0"/><feColorMatrix in="blurOut" result="blurOut2" type="matrix" values="0 0 0 0 0 0 0 0 0 0 0 0 0 0 0 0 0 0 .4 0"/><feOffset dx="4.0" dy="4.0" in="blurOut2" result="blurOut3"/><feBlend in="SourceGraphic" in2="blurOut3" mode="normal"/></filter></defs><g><rect fill="#FEFECE" filter="url(#f1l9umeo81n6zb)" height="113.1284" rx="12.5" ry="12.5" style="stroke:#A80036;stroke-width:1.5;" width="377" x="7" y="7"/><rect fill="#FFFFFF" height="80.8315" rx="12.5" ry="12.5" style="stroke:#FFFFFF;stroke-width:1.0;" width="371" x="10" y="36.2969"/><line style="stroke:#A80036;stroke-width:1.5;" x1="7" x2="384" y1="33.2969" y2="33.2969"/><text fill="#000000" font-family="sans-serif" font-size="14" lengthAdjust="spacingAndGlyphs" textLength="59" x="166" y="24.9951">machine</text><ellipse cx="28" cy="76.8628" fill="#000000" filter="url(#f1l9umeo81n6zb)" rx="10" ry="10" style="stroke:none;stroke-width:1.0;"/><g id="machine.machine.initial"><rect fill="#FEFECE" filter="url(#f1l9umeo81n6zb)" height="50" rx="12.5" ry="12.5" style="stroke:#A80036;stroke-width:1.5;" width="54" x="75" y="51.8628"/><line style="stroke:#A80036;stroke-width:1.5;" x1="75" x2="129" y1="78.1597" y2="78.1597"/><text fill="#000000" font-family="sans-serif" font-size="14" lengthAdjust="spacingAndGlyphs" textLength="34" x="85" y="69.8579">initial</text></g><g id="machine.initial.machine.final"><rect fill="#FEFECE" filter="url(#f1l9umeo81n6zb)" height="50.2656" rx="12.5" ry="12.5" style="stroke:#A80036;stroke-width:1.5;" width="137" x="231" y="51.8628"/><line style="stroke:#A80036;stroke-width:1.5;" x1="231" x2="368" y1="78.1597" y2="78.1597"/><text fill="#000000" font-family="sans-serif" font-size="14" lengthAdjust="spacingAndGlyphs" textLength="27" x="286" y="69.8579">final</text><text fill="#000000" font-family="sans-serif" font-size="12" lengthAdjust="spacingAndGlyphs" textLength="117" x="236" y="94.2983">onEntry/finalAction</text></g><!--MD5=[75d38d51f932471ff9a649031df9b364]
link *start*machine to machine.initial--><path d="M38.12,76.8628 C46.13,76.8628 58.25,76.8628 69.73,76.8628 " fill="none" id="*start*machine-to-machine.initial" style="stroke:#A80036;stroke-width:1.0;"/><polygon fill="#A80036" points="74.94,76.8628,65.94,72.8628,69.94,76.8628,65.94,80.8628,74.94,76.8628" style="stroke:#A80036;stroke-width:1.0;"/><!--MD5=[b98ac3a9d1c579e3dbfa556124324ffc]
link machine.initial to machine.final--><path d="M129.37,76.8628 C153.9,76.8628 191.63,76.8628 225.23,76.8628 " fill="none" id="machine.initial-to-machine.final" style="stroke:#A80036;stroke-width:1.0;"/><polygon fill="#A80036" points="230.59,76.8628,221.59,72.8628,225.59,76.8628,221.59,80.8628,230.59,76.8628" style="stroke:#A80036;stroke-width:1.0;"/><text fill="#000000" font-family="sans-serif" font-size="13" lengthAdjust="spacingAndGlyphs" textLength="7" x="148" y="57.9297">T</text><text fill="#000000" font-family="sans-serif" font-size="13" lengthAdjust="spacingAndGlyphs" textLength="64" x="148" y="73.0625">/myAction</text></g></svg>