<?xml version="1.0" encoding="UTF-8" standalone="no"?><svg xmlns="http://www.w3.org/2000/svg" xmlns:xlink="http://www.w3.org/1999/xlink" contentScriptType="application/ecmascript" contentStyleType="text/css" height="193px" preserveAspectRatio="none" style="width:572px;height:193px;" version="1.1" viewBox="0 0 572 193" width="572px" zoomAndPan="magnify"><defs><filter height="300%" id="f13nina79jwss9" width="300%" x="-1" y="-1"><feGaussianBlur result="blurOut" stdDeviation="2.0"/><feColorMatrix in="blurOut" result="blurOut2" type="matrix" values="0 0 0 0 0 0 0 0 0 0 0 0 0 0 0 0 0 0 .4 0"/><feOffset dx="4.0" dy="4.0" in="blurOut2" result="blurOut3"/><feBlend in="SourceGraphic" in2="blurOut3" mode="normal"/></filter></defs><g><rect fill="#FEFECE" filter="url(#f13nina79jwss9)" height="174.2969" rx="12.5" ry="12.5" style="stroke:#A80036;stroke-width:1.5;" width="553" x="7" y="7"/><rect fill="#FFFFFF" height="142" rx="12.5" ry="12.5" style="stroke:#FFFFFF;stroke-width:1.0;" width="547" x="10" y="36.2969"/><line style="stroke:#A80036;stroke-width:1.5;" x1="7" x2="560" y1="33.2969" y2="33.2969"/><text fill="#000000" font-family="sans-serif" font-size="14" lengthAdjust="spacing" textLength="67" x="250" y="24.9951">download</text><ellipse cx="28" cy="104.2969" fill="#000000" filter="url(#f13nina79jwss9)" rx="10" ry="10" style="stroke:none;stroke-width:1.0;"/><g id="download.download.idle"><rect fill="#FEFECE" filter="url(#f13nina79jwss9)" height="50" rx="12.5" ry="12.5" style="stroke:#A80036;stroke-width:1.5;" width="50" x="75" y="79.2969"/><line style="stroke:#A80036;stroke-width:1.5;" x1="75" x2="125" y1="105.5938" y2="105.5938"/><text fill="#000000" font-family="sans-serif" font-size="14" lengthAdjust="spacing" textLength="24" x="88" y="97.292">idle</text></g><g id="download.idle.download.loading"><rect fill="#FEFECE" filter="url(#f13nina79jwss9)" height="50.2656" rx="12.5" ry="12.5" style="stroke:#A80036;stroke-width:1.5;" width="108" x="204" y="79.2969"/><line style="stroke:#A80036;stroke-width:1.5;" x1="204" x2="312" y1="105.5938" y2="105.5938"/><text fill="#000000" font-family="sans-serif" font-size="14" lengthAdjust="spacing" textLength="50" x="233" y="97.292">loading</text><text fill="#000000" font-family="sans-serif" font-size="12" lengthAdjust="spacing" textLength="88" x="209" y="121.7324">invoke/service</text></g><g id="download.loading.download.done"><rect fill="#FEFECE" filter="url(#f13nina79jwss9)" height="50" rx="12.5" ry="12.5" style="stroke:#A80036;stroke-width:1.5;" width="56" x="488" y="45.2969"/><line style="stroke:#A80036;stroke-width:1.5;" x1="488" x2="544" y1="71.5938" y2="71.5938"/><text fill="#000000" font-family="sans-serif" font-size="14" lengthAdjust="spacing" textLength="36" x="498" y="63.292">done</text></g><g id="download.loading.download.error"><rect fill="#FEFECE" filter="url(#f13nina79jwss9)" height="50" rx="12.5" ry="12.5" style="stroke:#A80036;stroke-width:1.5;" width="53" x="489.5" y="113.2969"/><line style="stroke:#A80036;stroke-width:1.5;" x1="489.5" x2="542.5" y1="139.5938" y2="139.5938"/><text fill="#000000" font-family="sans-serif" font-size="14" lengthAdjust="spacing" textLength="33" x="499.5" y="131.292">error</text></g><!--MD5=[b7e5edbbb0c655def6d62a0ca86dcbaa]
link *start*download to download.idle--><path d="M38.15,104.2969 C46.19,104.2969 58.33,104.2969 69.65,104.2969 " fill="none" id="*start*download-to-download.idle" style="stroke:#A80036;stroke-width:1.0;"/><polygon fill="#A80036" points="74.78,104.2969,65.78,100.2969,69.78,104.2969,65.78,108.2969,74.78,104.2969" style="stroke:#A80036;stroke-width:1.0;"/><!--MD5=[2c0bd9f17abf07ecdb458ddef299e8d4]
link download.idle to download.loading--><path d="M125.03,104.2969 C144.66,104.2969 173.24,104.2969 198.78,104.2969 " fill="none" id="download.idle-to-download.loading" style="stroke:#A80036;stroke-width:1.0;"/><polygon fill="#A80036" points="203.85,104.2969,194.85,100.2969,198.85,104.2969,194.85,108.2969,203.85,104.2969" style="stroke:#A80036;stroke-width:1.0;"/><text fill="#000000" font-family="sans-serif" font-size="13" lengthAdjust="spacing" textLength="41" x="144" y="100.3638">FETCH</text><!--MD5=[55a67aa86df520112ccd5ca185c510d4]
link download.loading to download.done--><path d="M312.04,97.2569 C363.55,90.4069 440.06,80.2469 482.92,74.5569 " fill="none" id="download.loading-to-download.done" style="stroke:#A80036;stroke-width:1.0;"/><polygon fill="#A80036" points="487.98,73.8869,478.5324,71.1043,483.0234,74.544,479.5837,79.0349,487.98,73.8869" style="stroke:#A80036;stroke-width:1.0;"/><text fill="#000000" font-family="sans-serif" font-size="13" lengthAdjust="spacing" textLength="126" x="337" y="73.3638">done.invoke.service</text><!--MD5=[3590658406de8b2fd06006f6db5e34bb]
link download.loading to download.error--><path d="M312.09,112.6969 C318.13,113.6069 324.19,114.4869 330,115.2969 C384.08,122.8469 447.22,130.4369 484,134.7269 " fill="none" id="download.loading-to-download.error" style="stroke:#A80036;stroke-width:1.0;"/><polygon fill="#A80036" points="489.23,135.3369,480.7615,130.3085,484.2645,134.7502,479.8228,138.2532,489.23,135.3369" style="stroke:#A80036;stroke-width:1.0;"/><text fill="#000000" font-family="sans-serif" font-size="13" lengthAdjust="spacing" textLength="138" x="331" y="111.3638">error.platform.service</text></g></svg>