<?xml version="1.0" encoding="UTF-8" standalone="no"?><svg xmlns="http://www.w3.org/2000/svg" xmlns:xlink="http://www.w3.org/1999/xlink" contentScriptType="application/ecmascript" contentStyleType="text/css" height="131px" preserveAspectRatio="none" style="width:292px;height:131px;" version="1.1" viewBox="0 0 292 131" width="292px" zoomAndPan="magnify"><defs><filter height="300%" id="fh3jhny6cdsjh" width="300%" x="-1" y="-1"><feGaussianBlur result="blurOut" stdDeviation="2.0"/><feColorMatrix in="blurOut" result="blurOut2" type="matrix" values="0 0 0 0 0 0 0 0 0 0 0 0 0 0 0 0 0 0 .4 0"/><feOffset dx="4.0" dy="4.0" in="blurOut2" result="blurOut3"/><feBlend in="SourceGraphic" in2="blurOut3" mode="normal"/></filter></defs><g><rect fill="#FEFECE" filter="url(#fh3jhny6cdsjh)" height="112.8628" rx="12.5" ry="12.5" style="stroke:#A80036;stroke-width:1.5;" width="273" x="7" y="7"/><rect fill="#FFFFFF" height="80.5659" rx="12.5" ry="12.5" style="stroke:#FFFFFF;stroke-width:1.0;" width="267" x="10" y="36.2969"/><line style="stroke:#A80036;stroke-width:1.5;" x1="7" x2="280" y1="33.2969" y2="33.2969"/><text fill="#000000" font-family="sans-serif" font-size="14" lengthAdjust="spacing" textLength="59" x="114" y="24.9951">machine</text><ellipse cx="28" cy="76.8628" fill="#000000" filter="url(#fh3jhny6cdsjh)" rx="10" ry="10" style="stroke:none;stroke-width:1.0;"/><g id="machine.machine.initial"><rect fill="#FEFECE" filter="url(#fh3jhny6cdsjh)" height="50" rx="12.5" ry="12.5" style="stroke:#A80036;stroke-width:1.5;" width="54" x="75" y="51.8628"/><line style="stroke:#A80036;stroke-width:1.5;" x1="75" x2="129" y1="78.1597" y2="78.1597"/><text fill="#000000" font-family="sans-serif" font-size="14" lengthAdjust="spacing" textLength="34" x="85" y="69.8579">initial</text></g><g id="machine.initial.machine.final"><rect fill="#FEFECE" filter="url(#fh3jhny6cdsjh)" height="50" rx="12.5" ry="12.5" style="stroke:#A80036;stroke-width:1.5;" width="50" x="214" y="51.8628"/><line style="stroke:#A80036;stroke-width:1.5;" x1="214" x2="264" y1="78.1597" y2="78.1597"/><text fill="#000000" font-family="sans-serif" font-size="14" lengthAdjust="spacing" textLength="27" x="225.5" y="69.8579">final</text></g><!--MD5=[75d38d51f932471ff9a649031df9b364]
link *start*machine to machine.initial--><path d="M38.12,76.8628 C46.13,76.8628 58.25,76.8628 69.73,76.8628 " fill="none" id="*start*machine-to-machine.initial" style="stroke:#A80036;stroke-width:1.0;"/><polygon fill="#A80036" points="74.94,76.8628,65.94,72.8628,69.94,76.8628,65.94,80.8628,74.94,76.8628" style="stroke:#A80036;stroke-width:1.0;"/><!--MD5=[b98ac3a9d1c579e3dbfa556124324ffc]
link machine.initial to machine.final--><path d="M129.03,76.8628 C151.82,76.8628 184.92,76.8628 208.65,76.8628 " fill="none" id="machine.initial-to-machine.final" style="stroke:#A80036;stroke-width:1.0;"/><polygon fill="#A80036" points="213.86,76.8628,204.86,72.8628,208.86,76.8628,204.86,80.8628,213.86,76.8628" style="stroke:#A80036;stroke-width:1.0;"/><text fill="#000000" font-family="sans-serif" font-size="13" lengthAdjust="spacing" textLength="42" x="148" y="57.9297">always</text><text fill="#000000" font-family="sans-serif" font-size="13" lengthAdjust="spacing" textLength="47" x="148" y="73.0625">[check]</text></g></svg>