<?xml version="1.0" encoding="UTF-8" standalone="no"?><svg xmlns="http://www.w3.org/2000/svg" xmlns:xlink="http://www.w3.org/1999/xlink" contentScriptType="application/ecmascript" contentStyleType="text/css" height="125px" preserveAspectRatio="none" style="width:287px;height:125px;" version="1.1" viewBox="0 0 287 125" width="287px" zoomAndPan="magnify"><defs><filter height="300%" id="f1ba2xq27wkvr3" width="300%" x="-1" y="-1"><feGaussianBlur result="blurOut" stdDeviation="2.0"/><feColorMatrix in="blurOut" result="blurOut2" type="matrix" values="0 0 0 0 0 0 0 0 0 0 0 0 0 0 0 0 0 0 .4 0"/><feOffset dx="4.0" dy="4.0" in="blurOut2" result="blurOut3"/><feBlend in="SourceGraphic" in2="blurOut3" mode="normal"/></filter></defs><g><rect fill="#FEFECE" filter="url(#f1ba2xq27wkvr3)" height="106.2969" rx="12.5" ry="12.5" style="stroke:#A80036;stroke-width:1.5;" width="268" x="7" y="7"/><rect fill="#FFFFFF" height="74" rx="12.5" ry="12.5" style="stroke:#FFFFFF;stroke-width:1.0;" width="262" x="10" y="36.2969"/><line style="stroke:#A80036;stroke-width:1.5;" x1="7" x2="275" y1="33.2969" y2="33.2969"/><text fill="#000000" font-family="sans-serif" font-size="14" lengthAdjust="spacingAndGlyphs" textLength="59" x="111.5" y="24.9951">machine</text><ellipse cx="28" cy="70.2969" fill="#000000" filter="url(#f1ba2xq27wkvr3)" rx="10" ry="10" style="stroke:none;stroke-width:1.0;"/><g id="machine.machine.initial"><rect fill="#FEFECE" filter="url(#f1ba2xq27wkvr3)" height="50" rx="12.5" ry="12.5" style="stroke:#A80036;stroke-width:1.5;" width="54" x="75" y="45.2969"/><line style="stroke:#A80036;stroke-width:1.5;" x1="75" x2="129" y1="71.5938" y2="71.5938"/><text fill="#000000" font-family="sans-serif" font-size="14" lengthAdjust="spacingAndGlyphs" textLength="34" x="85" y="63.292">initial</text></g><g id="machine.initial.machine.final"><rect fill="#FEFECE" filter="url(#f1ba2xq27wkvr3)" height="50" rx="12.5" ry="12.5" style="stroke:#A80036;stroke-width:1.5;" width="50" x="209" y="45.2969"/><line style="stroke:#A80036;stroke-width:1.5;" x1="209" x2="259" y1="71.5938" y2="71.5938"/><text fill="#000000" font-family="sans-serif" font-size="14" lengthAdjust="spacingAndGlyphs" textLength="27" x="220.5" y="63.292">final</text></g><!--MD5=[75d38d51f932471ff9a649031df9b364]
link *start*machine to machine.initial--><path d="M38.12,70.2969 C46.13,70.2969 58.25,70.2969 69.73,70.2969 " fill="none" id="*start*machine-to-machine.initial" style="stroke:#A80036;stroke-width:1.0;"/><polygon fill="#A80036" points="74.94,70.2969,65.94,66.2969,69.94,70.2969,65.94,74.2969,74.94,70.2969" style="stroke:#A80036;stroke-width:1.0;"/><!--MD5=[b98ac3a9d1c579e3dbfa556124324ffc]
link machine.initial to machine.final--><path d="M129.31,70.2969 C150.87,70.2969 181.38,70.2969 203.72,70.2969 " fill="none" id="machine.initial-to-machine.final" style="stroke:#A80036;stroke-width:1.0;"/><polygon fill="#A80036" points="208.92,70.2969,199.92,66.2969,203.92,70.2969,199.92,74.2969,208.92,70.2969" style="stroke:#A80036;stroke-width:1.0;"/><text fill="#000000" font-family="sans-serif" font-size="13" lengthAdjust="spacingAndGlyphs" textLength="42" x="148" y="66.3638">always</text></g></svg>